Coordinates
version=1
nRows=13
nColumns=40
inDegrees=yes

Units are S.I. units (second, meters, Newtons, ...)
If the header above contains a line with 'inDegrees', this indicates whether rotational values are in degrees (yes) or radians (no).

endheader
time	pelvis_tilt	pelvis_list	pelvis_rotation	pelvis_tx	pelvis_ty	pelvis_tz	hip_flexion_r	hip_adduction_r	hip_rotation_r	knee_angle_r	knee_angle_r_beta	ankle_angle_r	subtalar_angle_r	mtp_angle_r	hip_flexion_l	hip_adduction_l	hip_rotation_l	knee_angle_l	knee_angle_l_beta	ankle_angle_l	subtalar_angle_l	mtp_angle_l	lumbar_extension	lumbar_bending	lumbar_rotation	arm_flex_r	arm_add_r	arm_rot_r	elbow_flex_r	pro_sup_r	wrist_flex_r	wrist_dev_r	arm_flex_l	arm_add_l	arm_rot_l	elbow_flex_l	pro_sup_l	wrist_flex_l	wrist_dev_l
      5.33500000	    -33.00934366	     -0.32023813	      6.55130354	      0.10500668	      0.68168258	     -1.18957504	     84.96373434	    -41.75321737	     -4.55465658	     70.58763508	      1.23198664	     12.53212037	     -9.17142965	      0.00000000	     87.70267900	    -25.63146222	     -3.13528214	     68.18470345	      1.19004757	     13.56816540	      3.25084456	      0.00000000	      0.00000000	      0.00000000	      0.00000000	     44.98586565	    -14.99995807	     44.98586565	     75.00017586	     45.00000026	      0.00000000	      0.00000000	     44.98586565	    -14.99995807	     44.98586565	     75.00017586	     45.00000026	      0.00000000	      0.00000000
      5.34000000	    -32.98601290	     -0.27890028	      6.51759165	      0.10551550	      0.68245990	     -1.18971029	     84.80162064	    -41.74026468	     -4.61645783	     70.42733051	      1.22918880	     12.48721507	     -9.11986627	      0.00000000	     87.51962209	    -25.65397287	     -3.25012794	     68.07969804	      1.18821488	     13.54645422	      3.22662105	      0.00000000	      0.00000000	      0.00000000	      0.00000000	     44.98589809	    -14.99995822	     44.98589809	     75.00017586	     45.00000026	      0.00000000	      0.00000000	     44.98589809	    -14.99995822	     44.98589809	     75.00017586	     45.00000026	      0.00000000	      0.00000000
      5.34500000	    -32.96172407	     -0.24076181	      6.50254188	      0.10600619	      0.68326817	     -1.18986371	     84.63209237	    -41.73327991	     -4.66939367	     70.26301466	      1.22632095	     12.45922499	     -9.07486538	      0.00000000	     87.32927726	    -25.65724031	     -3.37098174	     67.95695535	      1.18607262	     13.56755287	      3.23518556	      0.00000000	      0.00000000	      0.00000000	      0.00000000	     44.98592959	    -14.99995837	     44.98592959	     75.00017586	     45.00000026	      0.00000000	      0.00000000	     44.98592959	    -14.99995837	     44.98592959	     75.00017586	     45.00000026	      0.00000000	      0.00000000
      5.35000000	    -32.92265347	     -0.19346009	      6.47928042	      0.10649090	      0.68407054	     -1.18998813	     84.45863828	    -41.73150564	     -4.72442694	     70.10285195	      1.22352558	     12.42774474	     -9.02787732	      0.00000000	     87.12755480	    -25.66773336	     -3.48613613	     67.84407528	      1.18410249	     13.58434736	      3.24661741	      0.00000000	      0.00000000	      0.00000000	      0.00000000	     44.98596159	    -14.99995852	     44.98596159	     75.00017586	     45.00000026	      0.00000000	      0.00000000	     44.98596159	    -14.99995852	     44.98596159	     75.00017586	     45.00000026	      0.00000000	      0.00000000
      5.35500000	    -32.86066957	     -0.14052114	      6.42047589	      0.10687253	      0.68477543	     -1.19008566	     84.30308339	    -41.70727180	     -4.76593319	     69.95973397	      1.22102770	     12.37588633	     -8.96952645	      0.00000000	     86.92523540	    -25.69210162	     -3.55036285	     67.76221883	      1.18267383	     13.55107535	      3.23260397	      0.00000000	      0.00000000	      0.00000000	      0.00000000	     44.98599310	    -14.99995867	     44.98599310	     75.00017586	     45.00000026	      0.00000000	      0.00000000	     44.98599310	    -14.99995867	     44.98599310	     75.00017586	     45.00000026	      0.00000000	      0.00000000
      5.36000000	    -32.82546899	     -0.10354658	      6.41536890	      0.10745570	      0.68554584	     -1.19022680	     84.12276021	    -41.71899890	     -4.82872843	     69.81566065	      1.21851315	     12.35113424	     -8.92630760	      0.00000000	     86.72730792	    -25.70368831	     -3.68912507	     67.65569271	      1.18081460	     13.57529861	      3.24624342	      0.00000000	      0.00000000	      0.00000000	      0.00000000	     44.98602443	    -14.99995882	     44.98602443	     75.00017586	     45.00000026	      0.00000000	      0.00000000	     44.98602443	    -14.99995882	     44.98602443	     75.00017586	     45.00000026	      0.00000000	      0.00000000
      5.36500000	    -32.47244483	      0.05551569	      6.48906515	      0.10825054	      0.68704383	     -1.19040463	     83.63098898	    -41.85890549	     -4.82288954	     69.66547204	      1.21589186	     12.39579715	     -8.79819716	      0.00000000	     86.05207648	    -25.61573714	     -3.89470113	     67.47996347	      1.17774754	     13.96714732	      3.71960063	      0.00000000	      0.00000000	      0.00000000	      0.00000000	     44.98607032	    -14.99995904	     44.98607032	     75.00017586	     45.00000026	      0.00000000	      0.00000000	     44.98607032	    -14.99995904	     44.98607032	     75.00017586	     45.00000026	      0.00000000	      0.00000000
      5.37000000	    -32.42546206	      0.08277757	      6.29573963	      0.10870503	      0.68779764	     -1.19018608	     83.45757934	    -41.65799711	     -4.88939235	     69.48807001	      1.21279561	     12.33809652	     -8.76768794	      0.00000000	     85.88064671	    -25.83752041	     -4.03077198	     67.40877321	      1.17650504	     13.81521926	      3.57505231	      0.00000000	      0.00000000	      0.00000000	      0.00000000	     44.98610875	    -14.99995923	     44.98610875	     75.00017586	     45.00000026	      0.00000000	      0.00000000	     44.98610875	    -14.99995923	     44.98610875	     75.00017586	     45.00000026	      0.00000000	      0.00000000
      5.37500000	    -32.37972140	      0.10988634	      6.14814775	      0.10919411	      0.68853763	     -1.19000367	     83.28328093	    -41.49210020	     -4.93861663	     69.33425298	      1.21011100	     12.29762605	     -8.75836441	      0.00000000	     85.70246508	    -26.01017615	     -4.16262306	     67.32743343	      1.17508539	     13.72291386	      3.48662081	      0.00000000	      0.00000000	      0.00000000	      0.00000000	     44.98614628	    -14.99995941	     44.98614628	     75.00017586	     45.00000026	      0.00000000	      0.00000000	     44.98614628	    -14.99995941	     44.98614628	     75.00017586	     45.00000026	      0.00000000	      0.00000000
      5.38000000	    -32.16884348	      0.20657510	      6.36169023	      0.10994296	      0.68953415	     -1.19048270	     82.93664197	    -41.78088946	     -4.96430352	     69.25870864	      1.20879250	     12.38764464	     -8.65607495	      0.00000000	     85.26399845	    -25.76379395	     -4.27342176	     67.19091377	      1.17270267	     14.03625832	      3.81788605	      0.00000000	      0.00000000	      0.00000000	      0.00000000	     44.98618317	    -14.99995958	     44.98618317	     75.00017586	     45.00000026	      0.00000000	      0.00000000	     44.98618317	    -14.99995958	     44.98618317	     75.00017586	     45.00000026	      0.00000000	      0.00000000
      5.38500000	    -32.12287529	      0.23165598	      6.30502016	      0.11044112	      0.69015535	     -1.19050257	     82.78253189	    -41.74728498	     -5.03600941	     69.14899600	      1.20687765	     12.33614442	     -8.59496897	      0.00000000	     85.11113546	    -25.82442696	     -4.36770886	     67.13868331	      1.17179108	     13.94256815	      3.73403832	      0.00000000	      0.00000000	      0.00000000	      0.00000000	     44.98621358	    -14.99995972	     44.98621358	     75.00017586	     45.00000026	      0.00000000	      0.00000000	     44.98621358	    -14.99995972	     44.98621358	     75.00017586	     45.00000026	      0.00000000	      0.00000000
      5.39000000	    -32.08013844	      0.26384714	      6.25302067	      0.11090416	      0.69076257	     -1.19050604	     82.63752397	    -41.71674691	     -5.09236500	     69.03438691	      1.20487735	     12.29756216	     -8.54734527	      0.00000000	     84.95505594	    -25.86883528	     -4.43734239	     67.07395419	      1.17066134	     13.87455863	      3.67240322	      0.00000000	      0.00000000	      0.00000000	      0.00000000	     44.98624320	    -14.99995986	     44.98624320	     75.00017586	     45.00000026	      0.00000000	      0.00000000	     44.98624320	    -14.99995986	     44.98624320	     75.00017586	     45.00000026	      0.00000000	      0.00000000
      5.39500000	    -32.06154371	      0.28229210	      6.25154790	      0.11153780	      0.69143609	     -1.19059485	     82.46647731	    -41.71715166	     -5.15740288	     68.91366603	      1.20277037	     12.30791122	     -8.52529874	      0.00000000	     84.79193206	    -25.88376006	     -4.55916505	     66.97166651	      1.16887609	     13.89229970	      3.66298963	      0.00000000	      0.00000000	      0.00000000	      0.00000000	     44.98627217	    -14.99996000	     44.98627217	     75.00017586	     45.00000026	      0.00000000	      0.00000000	     44.98627217	    -14.99996000	     44.98627217	     75.00017586	     45.00000026	      0.00000000	      0.00000000
